# xmcd
#
# Track frame offsets:
# 150
# 13590
# 27467
# 41202
# 55150
# 68297
# 88870
# 101450
# 117297
# 131617
# 145710
# 160060
# 174115
# 187800
#
# Disc length: 2695 seconds
#
#
# Revision: 1
# Processed by: cddbd v1.5.1PL0 Copyright (c) Steve Scherf et al.
# Submitted via: FreeRIP 2.93 
#
DISCID=ac0a850e
DTITLE=Truck Stop - Das gibt's doch nur in Dallas
DYEAR=1992
DGENRE=Country
TTITLE0=Hinnerk, der Supertrucker
TTITLE1=Wenn du gehst
TTITLE2=Mitten aus dem Leben
TTITLE3=Wilde Pferde, wilde Wölfe, wildes Land
TTITLE4=Country Made in Germany
TTITLE5=Frankfurt-Airport
TTITLE6=Truck Stop Mama
TTITLE7=Frankie wollte Cowboy werden
TTITLE8=Du bist immer auf Achse
TTITLE9=Ich fang´ ein neues Leben an
TTITLE10=Wir sind noch lange keine Opas
TTITLE11=Das gibt´s doch nur in Dallas
TTITLE12=Hillybilly Country Lilly
TTITLE13=Mein Stiefel kommt in´ Himmel
EXTD=YEAR: 1992 ID3G: 2
EXTT0=
EXTT1=
EXTT2=
EXTT3=
EXTT4=
EXTT5=
EXTT6=
EXTT7=
EXTT8=
EXTT9=
EXTT10=
EXTT11=
EXTT12=
EXTT13=
PLAYORDER=
